<svg width="286" height="52" viewBox="0 0 286 52" fill="none" xmlns="http://www.w3.org/2000/svg">
<path d="M32.3523 12.2829C32.1676 11.0448 31.8475 9.93541 31.392 8.95474C30.9489 7.96181 30.358 7.12211 29.6193 6.43565C28.8807 5.73692 27.9882 5.20368 26.9418 4.83593C25.9077 4.45592 24.7074 4.26591 23.3409 4.26591C21.1004 4.26591 18.9337 4.84206 16.8409 5.99434C14.7604 7.14663 12.9569 8.84441 11.4304 11.0877C9.91619 13.331 8.88826 16.083 8.34659 19.3437C7.80492 22.6044 7.86032 25.3564 8.51278 27.5997C9.17756 29.843 10.3163 31.5408 11.929 32.6931C13.554 33.8454 15.536 34.4215 17.875 34.4215C20.0417 34.4215 22.0606 33.9618 23.9318 33.0424C25.803 32.1108 27.3726 30.7992 28.6406 29.1075C29.9086 27.4036 30.7273 25.3993 31.0966 23.0948L32.4261 23.389H21.0511L21.7898 19.3437H36.1932L35.4545 23.389C34.9621 26.5026 33.8665 29.2056 32.1676 31.4979C30.4688 33.7902 28.3513 35.5615 25.8153 36.8119C23.2794 38.0622 20.5095 38.6874 17.5057 38.6874C14.1572 38.6874 11.3504 37.9029 9.08523 36.3338C6.82008 34.7647 5.22585 32.5337 4.30256 29.6407C3.37926 26.7478 3.25 23.3154 3.91477 19.3437C4.39489 16.3649 5.23201 13.6865 6.42614 11.3083C7.63258 8.91796 9.10985 6.88308 10.858 5.20368C12.6184 3.52428 14.5819 2.23715 16.7486 1.34229C18.9276 0.447431 21.2235 0 23.6364 0C25.6307 0 27.4403 0.30033 29.0653 0.90099C30.7027 1.48939 32.1122 2.32909 33.294 3.42008C34.4759 4.49882 35.393 5.79208 36.0455 7.29986C36.6979 8.79538 37.0426 10.4564 37.0795 12.2829H32.3523Z" fill="black"/>
<path d="M37.1495 38.1726L41.8768 9.92928H46.087L45.3484 14.1952H45.6438C46.3825 12.7977 47.5089 11.6638 49.0231 10.7935C50.5373 9.92315 52.1439 9.48798 53.8427 9.48798C54.1751 9.48798 54.5752 9.49411 55.043 9.50636C55.5108 9.50636 55.874 9.52475 56.1325 9.56153L55.3938 13.9745C55.2461 13.9378 54.9137 13.8826 54.3967 13.8091C53.8796 13.7232 53.3257 13.6803 52.7348 13.6803C51.356 13.6803 50.0818 13.9684 48.9123 14.5446C47.7428 15.1084 46.7641 15.893 45.9762 16.8982C45.1884 17.8911 44.6836 19.025 44.462 20.2999L41.5075 38.1726H37.1495Z" fill="black"/>
<path d="M64.4337 38.761C61.713 38.761 59.4663 38.1603 57.6936 36.959C55.9209 35.7454 54.6837 34.0537 53.9819 31.884C53.2802 29.702 53.1694 27.1645 53.6496 24.2716C54.1297 21.3786 55.0837 18.8289 56.5118 16.6223C57.9398 14.4036 59.7187 12.6752 61.8484 11.4371C63.9782 10.1867 66.3172 9.56153 68.8655 9.56153C70.3427 9.56153 71.7646 9.8067 73.1311 10.297C74.4976 10.7874 75.6794 11.5842 76.6766 12.6874C77.6737 13.7784 78.3693 15.2249 78.7632 17.0269C79.1571 18.8289 79.1325 21.0476 78.6893 23.6832L78.3939 25.5219H56.5302L57.1212 21.7709H74.553C74.8361 20.1773 74.7623 18.7553 74.3314 17.5049C73.9128 16.2546 73.1803 15.2678 72.1339 14.5446C71.0998 13.8213 69.7888 13.4597 68.2007 13.4597C66.5634 13.4597 65.0369 13.901 63.6212 14.7836C62.2054 15.6539 61.0236 16.7572 60.0757 18.0934C59.1278 19.4173 58.5369 20.7657 58.303 22.1386L57.7859 25.3748C57.4166 27.7162 57.472 29.5794 57.9521 30.9646C58.4445 32.3498 59.3001 33.3489 60.5189 33.9618C61.7376 34.5625 63.2641 34.8628 65.0984 34.8628C66.2679 34.8628 67.3451 34.7034 68.33 34.3847C69.3148 34.0537 70.195 33.5634 70.9706 32.9137C71.7462 32.2518 72.3986 31.4305 72.928 30.4498L76.9166 31.6266C76.2395 33.0486 75.2854 34.2989 74.0544 35.3777C72.8356 36.4441 71.4076 37.2777 69.7703 37.8784C68.1453 38.4668 66.3664 38.761 64.4337 38.761Z" fill="black"/>
<path d="M91.6808 38.761C88.9602 38.761 86.7135 38.1603 84.9408 36.959C83.1681 35.7454 81.9308 34.0537 81.2291 31.884C80.5274 29.702 80.4166 27.1645 80.8968 24.2716C81.3769 21.3786 82.3309 18.8289 83.759 16.6223C85.187 14.4036 86.9659 12.6752 89.0956 11.4371C91.2253 10.1867 93.5644 9.56153 96.1127 9.56153C97.5899 9.56153 99.0118 9.8067 100.378 10.297C101.745 10.7874 102.927 11.5842 103.924 12.6874C104.921 13.7784 105.616 15.2249 106.01 17.0269C106.404 18.8289 106.38 21.0476 105.937 23.6832L105.641 25.5219H83.7774L84.3683 21.7709H101.8C102.083 20.1773 102.009 18.7553 101.579 17.5049C101.16 16.2546 100.428 15.2678 99.3811 14.5446C98.347 13.8213 97.0359 13.4597 95.4479 13.4597C93.8106 13.4597 92.2841 13.901 90.8683 14.7836C89.4526 15.6539 88.2708 16.7572 87.3229 18.0934C86.375 19.4173 85.7841 20.7657 85.5502 22.1386L85.0331 25.3748C84.6638 27.7162 84.7192 29.5794 85.1993 30.9646C85.6917 32.3498 86.5473 33.3489 87.7661 33.9618C88.9848 34.5625 90.5113 34.8628 92.3456 34.8628C93.5151 34.8628 94.5923 34.7034 95.5771 34.3847C96.562 34.0537 97.4422 33.5634 98.2178 32.9137C98.9933 32.2518 99.6458 31.4305 100.175 30.4498L104.164 31.6266C103.487 33.0486 102.533 34.2989 101.302 35.3777C100.083 36.4441 98.6548 37.2777 97.0175 37.8784C95.3925 38.4668 93.6136 38.761 91.6808 38.761Z" fill="black"/>
<path d="M114.275 21.1825L111.468 38.1726H107.11L111.837 9.92928H116.047L115.309 14.3423H115.678C116.564 12.9081 117.765 11.7558 119.279 10.8854C120.793 10.0028 122.621 9.56153 124.763 9.56153C126.659 9.56153 128.259 9.9538 129.564 10.7383C130.882 11.5106 131.811 12.6874 132.353 14.2687C132.907 15.8378 132.987 17.8237 132.593 20.2263L129.564 38.1726H125.206L128.161 20.5205C128.53 18.314 128.241 16.5856 127.293 15.3352C126.357 14.0849 124.874 13.4597 122.843 13.4597C121.439 13.4597 120.141 13.76 118.946 14.3607C117.765 14.9613 116.761 15.8378 115.937 16.9901C115.124 18.1424 114.57 19.5398 114.275 21.1825Z" fill="black"/>
<path d="M0 48.4696H135.917V52H0V48.4696Z" fill="black"/>
<path d="M138.667 3.653H286V51.1174H138.667V3.653Z" fill="#4F8104"/>
<path d="M176.411 23.2664H165.996C165.922 22.4083 165.725 21.6299 165.405 20.9312C165.098 20.2324 164.667 19.6318 164.113 19.1292C163.571 18.6143 162.912 18.2221 162.137 17.9524C161.361 17.6704 160.481 17.5295 159.496 17.5295C157.773 17.5295 156.314 17.9463 155.12 18.7798C153.938 19.6134 153.039 20.8086 152.424 22.3654C151.821 23.9222 151.519 25.7916 151.519 27.9736C151.519 30.2782 151.827 32.2089 152.442 33.7657C153.07 35.3102 153.975 36.4748 155.157 37.2593C156.339 38.0316 157.76 38.4177 159.422 38.4177C160.37 38.4177 161.22 38.3013 161.971 38.0684C162.722 37.8232 163.374 37.4738 163.928 37.0203C164.482 36.5667 164.931 36.0212 165.276 35.3838C165.633 34.7341 165.873 34.0047 165.996 33.1957L176.411 33.2692C176.288 34.8628 175.839 36.487 175.063 38.1419C174.287 39.7845 173.186 41.3046 171.758 42.702C170.342 44.0872 168.588 45.2027 166.495 46.0486C164.402 46.8944 161.971 47.3173 159.201 47.3173C155.729 47.3173 152.615 46.5757 149.857 45.0924C147.112 43.6091 144.939 41.4272 143.339 38.5464C141.75 35.6657 140.956 32.1414 140.956 27.9736C140.956 23.7812 141.769 20.2508 143.394 17.3824C145.019 14.5016 147.21 12.3258 149.968 10.8548C152.725 9.37152 155.803 8.62989 159.201 8.62989C161.589 8.62989 163.786 8.95474 165.793 9.60443C167.8 10.2541 169.56 11.2041 171.074 12.4545C172.589 13.6926 173.807 15.2188 174.731 17.033C175.654 18.8472 176.214 20.925 176.411 23.2664Z" fill="white"/>
<path d="M215.625 27.9736C215.625 32.166 214.807 35.7025 213.169 38.5832C211.532 41.4517 209.322 43.6275 206.54 45.1108C203.758 46.5818 200.656 47.3173 197.233 47.3173C193.786 47.3173 190.672 46.5757 187.89 45.0924C185.12 43.5969 182.916 41.4149 181.279 38.5464C179.654 35.6657 178.841 32.1414 178.841 27.9736C178.841 23.7812 179.654 20.2508 181.279 17.3824C182.916 14.5016 185.12 12.3258 187.89 10.8548C190.672 9.37152 193.786 8.62989 197.233 8.62989C200.656 8.62989 203.758 9.37152 206.54 10.8548C209.322 12.3258 211.532 14.5016 213.169 17.3824C214.807 20.2508 215.625 23.7812 215.625 27.9736ZM205.063 27.9736C205.063 25.7181 204.761 23.818 204.158 22.2735C203.567 20.7166 202.687 19.5398 201.517 18.743C200.36 17.934 198.932 17.5295 197.233 17.5295C195.534 17.5295 194.1 17.934 192.931 18.743C191.774 19.5398 190.893 20.7166 190.29 22.2735C189.699 23.818 189.404 25.7181 189.404 27.9736C189.404 30.2291 189.699 32.1353 190.29 33.6921C190.893 35.2367 191.774 36.4135 192.931 37.2225C194.1 38.0193 195.534 38.4177 197.233 38.4177C198.932 38.4177 200.36 38.0193 201.517 37.2225C202.687 36.4135 203.567 35.2367 204.158 33.6921C204.761 32.1353 205.063 30.2291 205.063 27.9736Z" fill="white"/>
<path d="M232.847 46.8025H218.296V9.14474H232.699C236.589 9.14474 239.95 9.89863 242.782 11.4064C245.625 12.9019 247.817 15.0594 249.355 17.8788C250.907 20.686 251.682 24.0509 251.682 27.9736C251.682 31.8963 250.913 35.2673 249.374 38.0868C247.835 40.8939 245.656 43.0514 242.837 44.5592C240.018 46.0547 236.688 46.8025 232.847 46.8025ZM228.563 38.1235H232.478C234.349 38.1235 235.943 37.8232 237.26 37.2225C238.59 36.6219 239.599 35.586 240.289 34.115C240.99 32.644 241.341 30.5969 241.341 27.9736C241.341 25.3503 240.984 23.3032 240.27 21.8322C239.568 20.3611 238.534 19.3253 237.168 18.7247C235.814 18.124 234.152 17.8237 232.182 17.8237H228.563V38.1235Z" fill="white"/>
<path d="M254.352 46.8025V9.14474H281.608V17.3824H264.62V23.8548H280.205V32.0924H264.62V38.5648H281.534V46.8025H254.352Z" fill="white"/>
</svg>
